<?xml version="1.0" encoding="utf-8"?>
<!-- Generator: Adobe Illustrator 22.0.1, SVG Export Plug-In . SVG Version: 6.00 Build 0)  -->
<svg version="1.1" id="Camada_1" xmlns="http://www.w3.org/2000/svg" xmlns:xlink="http://www.w3.org/1999/xlink" x="0px" y="0px"
	 width="16px" height="16px" viewBox="0 0 16 16" style="enable-background:new 0 0 16 16;" xml:space="preserve">
<g>
	<path d="M8.1,15.8c-1.9,0-3.6-0.7-5-2.1c-1.2-1.3-1.9-2.8-1.9-4.6c0-2.8,1.3-4.8,3.7-6.1C5.4,2.7,6,2.4,6.5,2.1
		C7,1.7,7.3,1.2,7.4,0.6c0-0.1,0-0.2,0-0.3c0-0.1,0-0.1,0.1-0.1c0.1,0,0.1,0.1,0.1,0.1C7.8,0.6,8.1,1,8.4,1.3
		c0.5,0.5,1.1,0.9,1.7,1.2c0.7,0.3,1.4,0.6,2,1.1c1.6,1.3,2.6,2.9,2.7,5c0.1,1.5-0.1,2.9-1,4.2c-1.1,1.6-2.6,2.6-4.5,2.9
		c-0.1,0-0.3,0-0.4,0.1C8.6,15.8,8.3,15.8,8.1,15.8z M14.3,10.6c0-0.2,0-0.4-0.1-0.6c-0.2-0.6-0.7-0.8-1.3-0.5
		C12.6,9.6,12.3,9.8,12,10c-0.3,0.2-0.7,0.5-1,0.7c-0.4,0.2-0.7,0.2-1.1,0c-0.2-0.1-0.3-0.2-0.5-0.3C9,10,8.5,9.7,8,9.4
		C7.4,9.2,6.8,9,6.1,9.2c-1.2,0.3-2,1.3-1.9,2.4c0,0.7,0.5,1.3,1.2,1.5c0.7,0.1,1.4,0.1,2-0.2c0.5-0.2,1-0.5,1.5-0.8
		c0.4-0.2,0.7-0.4,1.1-0.6c0.4-0.2,0.7-0.2,1.1,0.1c0.2,0.2,0.4,0.4,0.6,0.6c0.3,0.3,0.5,0.5,0.8,0.7c0.4,0.3,0.8,0.2,1.1-0.1
		C14.1,12.2,14.3,11.4,14.3,10.6z M7.5,0.6C7.5,0.6,7.5,0.6,7.5,0.6c0,0.1-0.1,0.1-0.1,0.2C7.4,1.3,7.2,1.7,6.7,2
		c-0.5,0.4-1,0.7-1.6,1C4.4,3.4,3.7,3.9,3,4.6C2.9,4.8,2.7,5,2.6,5.2c-0.1,0.3,0,0.4,0.3,0.4c0.2,0,0.5-0.1,0.7-0.2
		c1.1-0.5,2.1-1.2,2.9-2.1C6.7,3.2,6.8,3,6.9,2.9c0-0.1,0.1-0.2-0.1-0.3c-0.1-0.1-0.1-0.1,0-0.2C6.9,2.3,7,2.3,7.1,2.2
		c0.2-0.1,0.5-0.3,0.5-0.6C7.7,1.3,7.6,1,7.5,0.6z M9.2,15c0.2,0,0.4,0,0.6,0c0.6,0,1.1-0.3,1.6-0.6c0.1,0,0.1-0.1,0.1-0.1
		c0-0.1,0-0.1,0-0.2c-0.1-0.1-0.1,0-0.2,0c-0.1,0-0.1,0.1-0.2,0.1c-1.1,0.5-2.3,0.6-3.4-0.1c-0.1-0.1-0.3,0-0.4,0.1
		c-0.1,0.1,0,0.2,0.1,0.3c0.1,0.1,0.3,0.2,0.5,0.3C8.3,15,8.7,15,9.2,15z M10.1,12.4c-0.5-0.1-0.9,0.3-1.3,0.6
		c-0.1,0.1-0.1,0.2,0,0.3c0.1,0.1,0.2,0,0.3-0.1c0.1-0.1,0.2-0.2,0.3-0.2c0.3-0.3,0.7-0.3,1.1-0.2c0.2,0,0.3,0.2,0.4,0.4
		c0,0.1,0.1,0.1,0.2,0.1c0.1,0,0.1-0.1,0.1-0.2c0,0,0-0.1,0-0.1c-0.1-0.4-0.4-0.6-0.8-0.6C10.3,12.4,10.2,12.4,10.1,12.4z"/>
</g>
</svg>
